<svg xmlns="http://www.w3.org/2000/svg" viewBox="0 0 512 512">
    <path fill="#79c6e4" d="M141.802 227.844L7.5 150.305v155.078l134.302 77.54z"/>
    <path d="M141.802 227.844L7.5 150.305v155.078l134.302 77.54z" opacity=".1"/>
    <path fill="#79c6e4" d="M141.802 227.844l134.301-77.539v155.078l-134.301 77.54z"/>
    <path d="M141.802 227.844l134.301-77.539v155.078l-134.301 77.54z" opacity=".2"/>
    <path fill="#79c6e4" d="M276.103 150.305l-134.301 77.539L7.5 150.305l134.302-77.539z"/>
    <circle cx="371.69" cy="179.462" r="132.81" fill="#ed718b"/>
    <path d="M464.718 84.691c9.388 18.21 14.691 38.869 14.691 60.767 0 73.346-59.459 132.805-132.805 132.805-36.229 0-69.063-14.513-93.023-38.034 22.055 42.781 66.666 72.038 118.114 72.038 73.346 0 132.805-59.459 132.805-132.805 0-37.118-15.233-70.672-39.782-94.771z" opacity=".1"/>
    <path d="M458.106 420.595L333.844 150.16c-4.758-10.355-19.473-10.355-24.231 0L185.351 420.595c0 24.715 61.058 44.751 136.377 44.751s136.378-20.036 136.378-44.751z" fill="#fda75f"/>
    <path d="M333.844 150.16c-2.614-5.69-8.233-8.233-13.556-7.67 2.464 1.783 4.394 4.423 5.247 7.835l77.294 306.251c33.535-8.153 55.277-21.232 55.277-35.979L333.844 150.16z" opacity=".1"/>
    <path d="M512 179.462c0-37.968-14.923-73.527-42.021-100.128a7.5 7.5 0 10-10.508 10.704C483.672 113.796 497 145.553 497 179.462c0 54.47-35.334 102.603-86.663 119.208l-69.678-151.643c-3.44-7.485-10.693-12.135-18.931-12.135-8.237 0-15.491 4.65-18.931 12.135l-41.854 91.088c-9.552-17.986-14.554-38.014-14.554-58.654 0-69.094 56.212-125.305 125.305-125.305 20.949 0 41.677 5.269 59.942 15.239a7.498 7.498 0 0010.176-2.99 7.5 7.5 0 00-2.99-10.176c-20.462-11.169-43.675-17.073-67.128-17.073-57.192 0-106.493 34.401-128.319 83.593l-97.823-56.477a7.499 7.499 0 00-7.5 0L3.75 143.811a7.394 7.394 0 00-.757.507c-.063.048-.123.098-.185.148a7.282 7.282 0 00-.526.463c-.052.051-.105.1-.156.153-.422.434-.786.91-1.086 1.422-.033.056-.062.114-.093.171a7.416 7.416 0 00-.309.626c-.032.074-.065.147-.095.222a7.66 7.66 0 00-.27.79l-.014.044a7.672 7.672 0 00-.174.866c-.011.077-.019.155-.028.233-.028.24-.044.481-.048.723-.001.041-.009.083-.009.126v155.078a7.5 7.5 0 003.75 6.495l134.302 77.539a7.453 7.453 0 004.717.943c.063-.008.125-.027.188-.037.255-.04.51-.084.76-.15.116-.031.228-.078.343-.114.196-.062.393-.119.583-.197.091-.037.177-.088.267-.129.21-.096.421-.191.623-.306l.02-.01 62.434-36.047-29.45 64.092a7.502 7.502 0 00-.685 3.131c0 15.681 15.597 29.087 45.105 38.77 26.493 8.693 61.57 13.481 98.771 13.481s72.278-4.788 98.772-13.481c29.508-9.683 45.105-23.089 45.105-38.77a7.487 7.487 0 00-.685-3.131l-11.083-24.122a7.499 7.499 0 00-9.946-3.684 7.5 7.5 0 00-3.685 9.946l10.274 22.362c-2.751 15.426-51.225 35.88-128.753 35.88s-126.002-20.453-128.753-35.88l123.453-268.676c1.408-3.066 4.176-3.398 5.3-3.398s3.892.331 5.3 3.398l72.401 157.57.005.011 26.156 56.925a7.5 7.5 0 0013.631-6.262l-22.574-49.131C473.213 293.305 512 239.854 512 179.462zm-370.198 39.722l-72.796-42.029a7.5 7.5 0 00-7.5 12.99l72.796 42.029v137.758L15 301.053V163.296l18.403 10.626a7.5 7.5 0 007.5-12.99L22.5 150.305l119.302-68.879 96.177 55.528a139.382 139.382 0 00-6.042 30.19l-90.135 52.04zm77.016 110.613l-69.516 40.136V232.174l82.186-47.45c.922 24.975 8.413 48.997 21.815 70.022l-34.485 75.051z"/>
</svg>
