# Blender v2.79 (sub 0) OBJ File: ''
# www.blender.org
o Teapot001
v 2.391248 3.081117 -0.019841
v 1.782248 3.081117 1.471159
v 1.785578 3.228777 1.474489
v 2.395928 3.228777 -0.019841
v 1.888748 3.081117 1.577659
v 2.541248 3.081117 -0.019841
v 0.291248 3.081117 2.080159
v 0.291248 3.228777 2.084839
v 0.291248 3.081117 2.230159
v -1.250362 3.081117 1.471159
v -1.209412 3.228777 1.474489
v -1.306252 3.081117 1.577659
v -1.808752 3.081117 -0.019841
v -1.813432 3.228777 -0.019841
v -1.958752 3.081117 -0.019841
v -1.199752 3.081117 -1.510841
v -1.203082 3.228777 -1.514171
v -1.306252 3.081117 -1.617341
v 0.291248 3.081117 -2.119841
v 0.291248 3.228777 -2.124521
v 0.291248 3.081117 -2.269841
v 1.782248 3.081117 -1.510841
v 1.785578 3.228777 -1.514171
v 1.888748 3.081117 -1.617341
v 2.254838 1.913937 1.943749
v 3.056888 1.913937 -0.019841
v 2.421248 0.831117 2.110159
v 3.291248 0.831117 -0.019841
v 0.291248 1.913937 2.745799
v 0.291248 0.831117 2.980159
v -1.672342 1.913937 1.943749
v -1.838752 0.831117 2.110159
v -2.474392 1.913937 -0.019841
v -2.708752 0.831117 -0.019841
v -1.672342 1.913937 -1.983431
v -1.838752 0.831117 -2.149841
v 0.291248 1.913937 -2.785481
v 0.291248 0.831117 -3.019841
v 2.254838 1.913937 -1.983431
v 2.421248 0.831117 -2.149841
v 2.154998 0.057687 1.843909
v 2.916248 0.057687 -0.019841
v 1.888748 -0.293883 1.577659
v 2.541248 -0.293883 -0.019841
v 0.291248 0.057687 2.605159
v 0.291248 -0.293883 2.230159
v -1.572502 0.057687 1.843909
v -1.306252 -0.293883 1.577659
v -2.333752 0.057687 -0.019841
v -1.958752 -0.293883 -0.019841
v -1.572502 0.057687 -1.883591
v -1.306252 -0.293883 -1.617341
v 0.291248 0.057687 -2.644841
v 0.291248 -0.293883 -2.269841
v 2.154998 0.057687 -1.883591
v 1.888748 -0.293883 -1.617341
v 1.659098 -0.448563 1.348009
v 2.217818 -0.448563 -0.019841
v 0.291248 -0.518883 -0.019841
v 0.291248 -0.448563 1.906729
v -1.076602 -0.448563 1.348009
v -1.635322 -0.448563 -0.019841
v -1.076602 -0.448563 -1.387691
v 0.291248 -0.448563 -1.946411
v 1.659098 -0.448563 -1.387691
v -2.108752 2.518617 -0.019841
v -2.033752 2.687367 0.317659
v -3.486892 2.624097 0.317659
v -3.327502 2.476437 -0.019841
v -3.983752 2.181117 0.317659
v -3.758752 2.181117 -0.019841
v -1.958752 2.856117 -0.019841
v -3.646252 2.771757 -0.019841
v -4.208752 2.181117 -0.019841
v -2.033752 2.687367 -0.357341
v -3.486892 2.624097 -0.357341
v -3.983752 2.181117 -0.357341
v -3.660322 1.361967 0.317659
v -3.515002 1.506117 -0.019841
v -2.633752 0.606117 0.317659
v -3.805642 1.217847 -0.019841
v -2.558752 0.381117 -0.019841
v -3.660322 1.361967 -0.357341
v -2.633752 0.606117 -0.357341
v 2.841248 1.618617 -0.019841
v 2.841248 0.999867 0.722659
v 4.097498 1.913937 0.492019
v 3.872498 2.181117 -0.019841
v 4.791248 3.081117 0.261409
v 4.341248 3.081117 -0.019841
v 2.841248 0.381117 -0.019841
v 4.322498 1.646727 -0.019841
v 5.241248 3.081117 -0.019841
v 2.841248 0.999867 -0.762341
v 4.097498 1.913937 -0.531701
v 4.791248 3.081117 -0.301091
v 4.981088 3.181317 0.205159
v 4.528748 3.165507 -0.019841
v 4.791248 3.081117 0.148909
v 4.491248 3.081117 -0.019841
v 5.433428 3.197127 -0.019841
v 5.091249 3.081117 -0.019841
v 4.981088 3.181317 -0.244841
v 4.791248 3.081117 -0.188591
v 0.637808 3.953007 0.326719
v 0.778748 3.953007 -0.019841
v 0.291248 4.206117 -0.019841
v 0.504248 3.531117 0.193159
v 0.591248 3.531117 -0.019841
v 0.291248 3.953007 0.467659
v 0.291248 3.531117 0.280159
v -0.055312 3.953007 0.326719
v 0.078248 3.531117 0.193159
v -0.196252 3.953007 -0.019841
v -0.008752 3.531117 -0.019841
v -0.055312 3.953007 -0.366401
v 0.078248 3.531117 -0.232841
v 0.291248 3.953007 -0.507341
v 0.291248 3.531117 -0.319841
v 0.637808 3.953007 -0.366401
v 0.504248 3.531117 -0.232841
v 1.169888 3.306117 0.858799
v 1.528748 3.306117 -0.019841
v 1.675748 3.081117 1.364659
v 2.241248 3.081117 -0.019841
v 0.291248 3.306117 1.217659
v 0.291248 3.081117 1.930159
v -0.587392 3.306117 0.858799
v -1.093252 3.081117 1.364659
v -0.946252 3.306117 -0.019841
v -1.658752 3.081117 -0.019841
v -0.587392 3.306117 -0.898481
v -1.093252 3.081117 -1.404341
v 0.291248 3.306117 -1.257341
v 0.291248 3.081117 -1.969841
v 1.169888 3.306117 -0.898481
v 1.675748 3.081117 -1.404341
vn -0.7067 0.0319 -0.7067
vn -0.1417 0.9899 0.0000
vn -0.9995 0.0317 0.0000
vn -0.0966 0.9906 -0.0966
vn 0.8400 0.5425 0.0000
vn 0.0023 0.9904 -0.1379
vn 0.0001 0.5434 0.8395
vn 0.5936 0.5435 0.5936
vn 0.0012 0.0541 -0.9985
vn 0.0678 0.9688 -0.2385
vn -0.5962 0.5352 0.5984
vn 0.7018 -0.2743 -0.6574
vn 0.1482 0.9889 0.0144
vn -0.8391 0.5439 -0.0012
vn 0.7067 0.0319 0.7067
vn 0.9943 0.1051 0.0201
vn 0.0966 0.9906 0.0966
vn 0.0000 0.9899 0.1417
vn 0.0000 0.5425 -0.8400
vn -0.5936 0.5435 -0.5936
vn -0.7067 0.0319 0.7067
vn 0.0000 0.0317 0.9995
vn -0.0966 0.9906 0.0966
vn 0.5936 0.5435 -0.5936
vn 0.9532 0.3025 0.0000
vn 0.6738 0.3034 0.6738
vn 0.9939 -0.1105 0.0000
vn 0.0000 0.3025 0.9532
vn -0.0000 -0.1105 0.9939
vn 0.7028 -0.1107 0.7028
vn -0.6738 0.3034 0.6738
vn -0.9532 0.3025 0.0000
vn -0.9939 -0.1105 0.0000
vn -0.7028 -0.1107 0.7028
vn -0.6738 0.3034 -0.6738
vn 0.0000 0.3025 -0.9532
vn -0.0000 -0.1105 -0.9939
vn -0.7028 -0.1107 -0.7028
vn 0.6738 0.3034 -0.6738
vn 0.7028 -0.1107 -0.7028
vn 0.5792 -0.5735 0.5792
vn 0.8198 -0.5726 -0.0000
vn 0.4157 -0.8089 0.4157
vn 0.5888 -0.8083 -0.0000
vn 0.0000 -0.5726 0.8198
vn -0.5792 -0.5735 0.5792
vn -0.4157 -0.8089 0.4157
vn -0.0000 -0.8083 0.5888
vn -0.8198 -0.5726 -0.0000
vn -0.5792 -0.5735 -0.5792
vn -0.4157 -0.8089 -0.4157
vn -0.5888 -0.8083 -0.0000
vn 0.0000 -0.5726 -0.8198
vn 0.5792 -0.5735 -0.5792
vn 0.4157 -0.8089 -0.4157
vn -0.0000 -0.8083 -0.5888
vn 0.2016 -0.9585 0.2016
vn 0.2850 -0.9585 0.0000
vn 0.0000 -1.0000 0.0000
vn -0.0000 -0.9585 0.2850
vn -0.2016 -0.9585 0.2016
vn -0.2850 -0.9585 0.0000
vn -0.2016 -0.9585 -0.2016
vn -0.0000 -0.9585 -0.2850
vn 0.2016 -0.9585 -0.2016
vn -0.0163 0.2642 0.9643
vn 0.2491 -0.9684 -0.0139
vn 0.0335 -0.9994 -0.0031
vn 0.0100 0.1692 0.9855
vn 0.9298 -0.3658 -0.0411
vn -0.0450 0.9990 0.0014
vn -0.4425 0.8967 0.0044
vn -0.3032 0.1168 0.9457
vn 0.0063 0.1729 -0.9849
vn -0.2695 0.1026 -0.9575
vn -0.9863 0.1651 -0.0032
vn -0.0157 0.2602 -0.9654
vn 0.8289 0.5593 -0.0134
vn -0.1115 -0.0737 0.9910
vn 0.6069 0.7942 -0.0290
vn -0.7841 -0.6206 0.0079
vn -0.3534 -0.5429 0.7618
vn -0.3230 -0.5244 -0.7878
vn -0.5545 -0.8321 0.0076
vn -0.1021 -0.0951 -0.9902
vn -0.4885 0.8726 -0.0072
vn 0.2052 0.0282 0.9783
vn -0.7440 0.6678 0.0236
vn -0.6974 0.7144 0.0564
vn 0.3245 -0.2475 0.9129
vn 0.7848 -0.6196 -0.0174
vn -0.0408 0.2940 0.9549
vn 0.3423 -0.2439 -0.9074
vn 0.6475 -0.7621 -0.0025
vn 0.0592 0.3207 -0.9453
vn 0.6035 -0.7910 -0.1005
vn 0.1831 -0.0165 -0.9830
vn 0.0307 0.9973 0.0671
vn 0.3038 -0.0791 -0.9495
vn 0.9551 -0.2960 0.0142
vn 0.2492 0.7396 0.6252
vn -0.3214 0.9470 -0.0029
vn 0.4059 0.7443 -0.5303
vn 0.8746 0.4660 -0.1337
vn 0.3288 -0.1526 0.9320
vn 0.6774 0.2870 0.6774
vn 0.9576 0.2882 -0.0000
vn -0.0000 1.0000 -0.0000
vn 0.5956 0.5395 0.5951
vn 0.8433 0.5374 0.0003
vn -0.0000 0.2882 0.9576
vn -0.6774 0.2870 0.6774
vn -0.5951 0.5395 0.5956
vn -0.0004 0.5369 0.8436
vn -0.9576 0.2882 -0.0000
vn -0.6774 0.2870 -0.6774
vn -0.5956 0.5395 -0.5951
vn -0.8435 0.5372 0.0000
vn -0.0000 0.2882 -0.9576
vn 0.6774 0.2870 -0.6774
vn 0.5951 0.5395 -0.5956
vn 0.0004 0.5369 -0.8436
vn 0.2754 0.9613 -0.0000
vn 0.1942 0.9616 0.1942
vn 0.3011 0.9536 0.0000
vn 0.0000 0.9613 0.2754
vn 0.0000 0.9536 0.3011
vn 0.2121 0.9539 0.2121
vn -0.1942 0.9616 0.1942
vn -0.2754 0.9613 0.0000
vn -0.3011 0.9536 -0.0000
vn -0.2121 0.9539 0.2121
vn -0.1942 0.9616 -0.1942
vn 0.0000 0.9613 -0.2754
vn -0.0000 0.9536 -0.3011
vn -0.2121 0.9539 -0.2121
vn 0.1942 0.9616 -0.1942
vn 0.2121 0.9539 -0.2121
s 1
f 2//1 4//2 1//3
f 3//4 6//5 4//2
f 2//1 8//6 3//4
f 3//4 9//7 5//8
f 7//9 11//10 8//6
f 8//6 12//11 9//7
f 10//12 14//13 11//10
f 11//10 15//14 12//11
f 16//15 14//13 13//16
f 17//17 15//14 14//13
f 16//15 20//18 17//17
f 17//17 21//19 18//20
f 22//21 20//18 19//22
f 23//23 21//19 20//18
f 22//21 4//2 23//23
f 23//23 6//5 24//24
f 5//8 26//25 6//5
f 25//26 28//27 26//25
f 5//8 29//28 25//26
f 25//26 30//29 27//30
f 12//11 29//28 9//7
f 31//31 30//29 29//28
f 12//11 33//32 31//31
f 31//31 34//33 32//34
f 18//20 33//32 15//14
f 35//35 34//33 33//32
f 18//20 37//36 35//35
f 35//35 38//37 36//38
f 24//24 37//36 21//19
f 39//39 38//37 37//36
f 24//24 26//25 39//39
f 39//39 28//27 40//40
f 28//27 41//41 42//42
f 42//42 43//43 44//44
f 30//29 41//41 27//30
f 45//45 43//43 41//41
f 30//29 47//46 45//45
f 45//45 48//47 46//48
f 34//33 47//46 32//34
f 49//49 48//47 47//46
f 34//33 51//50 49//49
f 49//49 52//51 50//52
f 38//37 51//50 36//38
f 53//53 52//51 51//50
f 38//37 55//54 53//53
f 53//53 56//55 54//56
f 28//27 55//54 40//40
f 42//42 56//55 55//54
f 44//44 57//57 58//58
f 58//58 57//57 59//59
f 46//48 57//57 43//43
f 57//57 60//60 59//59
f 46//48 61//61 60//60
f 60//60 61//61 59//59
f 50//52 61//61 48//47
f 61//61 62//62 59//59
f 50//52 63//63 62//62
f 62//62 63//63 59//59
f 54//56 63//63 52//51
f 63//63 64//64 59//59
f 54//56 65//65 64//64
f 64//64 65//65 59//59
f 44//44 65//65 56//55
f 65//65 58//58 59//59
f 67//66 69//67 66//68
f 68//69 71//70 69//67
f 72//71 68//69 67//66
f 73//72 70//73 68//69
f 72//71 76//74 73//72
f 73//72 77//75 74//76
f 75//77 69//67 76//74
f 76//74 71//70 77//75
f 70//73 79//78 71//70
f 78//79 34//80 79//78
f 70//73 81//81 78//79
f 81//81 80//82 78//79
f 77//75 81//81 74//76
f 81//81 84//83 82//84
f 77//75 79//78 83//85
f 83//85 34//80 84//83
f 85//86 87//87 88//88
f 87//87 90//89 88//88
f 86//90 92//91 87//87
f 92//91 89//92 87//87
f 94//93 92//91 91//94
f 92//91 96//95 93//96
f 85//86 95//97 94//93
f 95//97 90//89 96//95
f 89//92 98//98 90//89
f 98//98 99//99 100//100
f 93//96 97//101 89//92
f 97//101 102//102 99//99
f 93//96 103//103 101//104
f 103//103 102//102 101//104
f 96//95 98//98 103//103
f 98//98 104//105 103//103
f 105//106 106//107 107//108
f 106//107 108//109 109//110
f 110//111 105//106 107//108
f 110//111 108//109 105//106
f 112//112 110//111 107//108
f 110//111 113//113 111//114
f 114//115 112//112 107//108
f 114//115 113//113 112//112
f 116//116 114//115 107//108
f 114//115 117//117 115//118
f 118//119 116//116 107//108
f 118//119 117//117 116//116
f 120//120 118//119 107//108
f 118//119 121//121 119//122
f 106//107 120//120 107//108
f 106//107 121//121 120//120
f 108//109 123//123 109//110
f 122//124 125//125 123//123
f 108//109 126//126 122//124
f 122//124 127//127 124//128
f 113//113 126//126 111//114
f 128//129 127//127 126//126
f 113//113 130//130 128//129
f 128//129 131//131 129//132
f 117//117 130//130 115//118
f 132//133 131//131 130//130
f 117//117 134//134 132//133
f 132//133 135//135 133//136
f 121//121 134//134 119//122
f 136//137 135//135 134//134
f 121//121 123//123 136//137
f 136//137 125//125 137//138
f 2//1 3//4 4//2
f 3//4 5//8 6//5
f 2//1 7//9 8//6
f 3//4 8//6 9//7
f 7//9 10//12 11//10
f 8//6 11//10 12//11
f 10//12 13//16 14//13
f 11//10 14//13 15//14
f 16//15 17//17 14//13
f 17//17 18//20 15//14
f 16//15 19//22 20//18
f 17//17 20//18 21//19
f 22//21 23//23 20//18
f 23//23 24//24 21//19
f 22//21 1//3 4//2
f 23//23 4//2 6//5
f 5//8 25//26 26//25
f 25//26 27//30 28//27
f 5//8 9//7 29//28
f 25//26 29//28 30//29
f 12//11 31//31 29//28
f 31//31 32//34 30//29
f 12//11 15//14 33//32
f 31//31 33//32 34//33
f 18//20 35//35 33//32
f 35//35 36//38 34//33
f 18//20 21//19 37//36
f 35//35 37//36 38//37
f 24//24 39//39 37//36
f 39//39 40//40 38//37
f 24//24 6//5 26//25
f 39//39 26//25 28//27
f 28//27 27//30 41//41
f 42//42 41//41 43//43
f 30//29 45//45 41//41
f 45//45 46//48 43//43
f 30//29 32//34 47//46
f 45//45 47//46 48//47
f 34//33 49//49 47//46
f 49//49 50//52 48//47
f 34//33 36//38 51//50
f 49//49 51//50 52//51
f 38//37 53//53 51//50
f 53//53 54//56 52//51
f 38//37 40//40 55//54
f 53//53 55//54 56//55
f 28//27 42//42 55//54
f 42//42 44//44 56//55
f 44//44 43//43 57//57
f 46//48 60//60 57//57
f 46//48 48//47 61//61
f 50//52 62//62 61//61
f 50//52 52//51 63//63
f 54//56 64//64 63//63
f 54//56 56//55 65//65
f 44//44 58//58 65//65
f 67//66 68//69 69//67
f 68//69 70//73 71//70
f 72//71 73//72 68//69
f 73//72 74//76 70//73
f 72//71 75//77 76//74
f 73//72 76//74 77//75
f 75//77 66//68 69//67
f 76//74 69//67 71//70
f 70//73 78//79 79//78
f 78//79 80//82 34//80
f 70//73 74//76 81//81
f 81//81 82//84 80//82
f 77//75 83//85 81//81
f 81//81 83//85 84//83
f 77//75 71//70 79//78
f 83//85 79//78 34//80
f 85//86 86//90 87//87
f 87//87 89//92 90//89
f 86//90 91//94 92//91
f 92//91 93//96 89//92
f 94//93 95//97 92//91
f 92//91 95//97 96//95
f 85//86 88//88 95//97
f 95//97 88//88 90//89
f 89//92 97//101 98//98
f 98//98 97//101 99//99
f 93//96 101//104 97//101
f 97//101 101//104 102//102
f 93//96 96//95 103//103
f 103//103 104//105 102//102
f 96//95 90//89 98//98
f 98//98 100//100 104//105
f 106//107 105//106 108//109
f 110//111 111//114 108//109
f 110//111 112//112 113//113
f 114//115 115//118 113//113
f 114//115 116//116 117//117
f 118//119 119//122 117//117
f 118//119 120//120 121//121
f 106//107 109//110 121//121
f 108//109 122//124 123//123
f 122//124 124//128 125//125
f 108//109 111//114 126//126
f 122//124 126//126 127//127
f 113//113 128//129 126//126
f 128//129 129//132 127//127
f 113//113 115//118 130//130
f 128//129 130//130 131//131
f 117//117 132//133 130//130
f 132//133 133//136 131//131
f 117//117 119//122 134//134
f 132//133 134//134 135//135
f 121//121 136//137 134//134
f 136//137 137//138 135//135
f 121//121 109//110 123//123
f 136//137 123//123 125//125
