# Blender v2.79 (sub 0) OBJ File: ''
# www.blender.org
o TeapotLow
v 1.750000 3.000000 0.000000
v 1.242500 3.000000 1.242500
v 1.245275 3.123050 1.245275
v 1.753900 3.123050 0.000000
v 1.331250 3.000000 1.331250
v 1.875000 3.000000 0.000000
v 0.000000 3.000000 1.750000
v 0.000000 3.123050 1.753900
v 0.000000 3.000000 1.875000
v -1.284675 3.000000 1.242500
v -1.250550 3.123050 1.245275
v -1.331250 3.000000 1.331250
v -1.750000 3.000000 0.000000
v -1.753900 3.123050 0.000000
v -1.875000 3.000000 0.000000
v -1.242500 3.000000 -1.242500
v -1.245275 3.123050 -1.245275
v -1.331250 3.000000 -1.331250
v 0.000000 3.000000 -1.750000
v 0.000000 3.123050 -1.753900
v 0.000000 3.000000 -1.875000
v 1.242500 3.000000 -1.242500
v 1.245275 3.123050 -1.245275
v 1.331250 3.000000 -1.331250
v 1.636325 2.027350 1.636325
v 2.304700 2.027350 0.000000
v 1.775000 1.125000 1.775000
v 2.500000 1.125000 0.000000
v 0.000000 2.027350 2.304700
v 0.000000 1.125000 2.500000
v -1.636325 2.027350 1.636325
v -1.775000 1.125000 1.775000
v -2.304700 2.027350 0.000000
v -2.500000 1.125000 0.000000
v -1.636325 2.027350 -1.636325
v -1.775000 1.125000 -1.775000
v 0.000000 2.027350 -2.304700
v 0.000000 1.125000 -2.500000
v 1.636325 2.027350 -1.636325
v 1.775000 1.125000 -1.775000
v 1.553125 0.480475 1.553125
v 2.187500 0.480475 0.000000
v 1.331250 0.187500 1.331250
v 1.875000 0.187500 0.000000
v 0.000000 0.480475 2.187500
v 0.000000 0.187500 1.875000
v -1.553125 0.480475 1.553125
v -1.331250 0.187500 1.331250
v -2.187500 0.480475 0.000000
v -1.875000 0.187500 0.000000
v -1.553125 0.480475 -1.553125
v -1.331250 0.187500 -1.331250
v 0.000000 0.480475 -2.187500
v 0.000000 0.187500 -1.875000
v 1.553125 0.480475 -1.553125
v 1.331250 0.187500 -1.331250
v 1.139875 0.058600 1.139875
v 1.605475 0.058600 0.000000
v 0.000000 0.000000 0.000000
v 0.000000 0.058600 1.605475
v -1.139875 0.058600 1.139875
v -1.605475 0.058600 0.000000
v -1.139875 0.058600 -1.139875
v 0.000000 0.058600 -1.605475
v 1.139875 0.058600 -1.139875
v -2.000000 2.531250 0.000000
v -1.937500 2.671875 0.281250
v -3.148450 2.619150 0.281250
v -3.015625 2.496100 0.000000
v -3.562500 2.250000 0.281250
v -3.375000 2.250000 0.000000
v -1.875000 2.812500 0.000000
v -3.281250 2.742200 0.000000
v -3.750000 2.250000 0.000000
v -1.937500 2.671875 -0.281250
v -3.148450 2.619150 -0.281250
v -3.562500 2.250000 -0.281250
v -3.292975 1.567375 0.281250
v -3.171875 1.687500 0.000000
v -2.437500 0.937500 0.281250
v -3.414075 1.447275 0.000000
v -2.375000 0.750000 0.000000
v -3.292975 1.567375 -0.281250
v -2.437500 0.937500 -0.281250
v 2.125000 1.781250 0.000000
v 2.125000 1.265625 0.618750
v 3.171875 2.027350 0.426550
v 2.984375 2.250000 0.000000
v 3.750000 3.000000 0.234375
v 3.375000 3.000000 0.000000
v 2.125000 0.750000 0.000000
v 3.359375 1.804675 0.000000
v 4.125000 3.000000 0.000000
v 2.125000 1.265625 -0.618750
v 3.171875 2.027350 -0.426550
v 3.750000 3.000000 -0.234375
v 3.908200 3.083500 0.187500
v 3.531250 3.070325 0.000000
v 3.750000 3.000000 0.140625
v 3.500000 3.000000 0.000000
v 4.285150 3.096675 0.000000
v 4.000000 3.000000 0.000000
v 3.908200 3.083500 -0.187500
v 3.750000 3.000000 -0.140625
v 0.288800 3.726575 0.288800
v 0.406250 3.726575 0.000000
v 0.000000 3.937500 0.000000
v 0.177500 3.375000 0.177500
v 0.250000 3.375000 0.000000
v 0.000000 3.726575 0.406250
v 0.000000 3.375000 0.250000
v -0.288800 3.726575 0.288800
v -0.177500 3.375000 0.177500
v -0.406250 3.726575 0.000000
v -0.250000 3.375000 0.000000
v -0.288800 3.726575 -0.288800
v -0.177500 3.375000 -0.177500
v 0.000000 3.726575 -0.406250
v 0.000000 3.375000 -0.250000
v 0.288800 3.726575 -0.288800
v 0.177500 3.375000 -0.177500
v 0.732200 3.187500 0.732200
v 1.031250 3.187500 0.000000
v 1.153750 3.000000 1.153750
v 1.625000 3.000000 0.000000
v 0.000000 3.187500 1.031250
v 0.000000 3.000000 1.625000
v -0.732200 3.187500 0.732200
v -1.153750 3.000000 1.153750
v -1.031250 3.187500 0.000000
v -1.625000 3.000000 0.000000
v -0.732200 3.187500 -0.732200
v -1.153750 3.000000 -1.153750
v 0.000000 3.187500 -1.031250
v 0.000000 3.000000 -1.625000
v 0.732200 3.187500 -0.732200
v 1.153750 3.000000 -1.153750
vn -0.7067 0.0319 -0.7067
vn -0.1417 0.9899 0.0000
vn -0.9995 0.0317 0.0000
vn -0.0966 0.9906 -0.0966
vn 0.8400 0.5425 0.0000
vn 0.0023 0.9904 -0.1379
vn 0.0001 0.5434 0.8395
vn 0.5936 0.5435 0.5936
vn 0.0012 0.0541 -0.9985
vn 0.0678 0.9688 -0.2385
vn -0.5962 0.5352 0.5984
vn 0.7018 -0.2743 -0.6574
vn 0.1482 0.9889 0.0144
vn -0.8391 0.5439 -0.0012
vn 0.7067 0.0319 0.7067
vn 0.9943 0.1051 0.0201
vn 0.0966 0.9906 0.0966
vn 0.0000 0.9899 0.1417
vn 0.0000 0.5425 -0.8400
vn -0.5936 0.5435 -0.5936
vn -0.7067 0.0319 0.7067
vn 0.0000 0.0317 0.9995
vn -0.0966 0.9906 0.0966
vn 0.5936 0.5435 -0.5936
vn 0.9532 0.3025 0.0000
vn 0.6738 0.3034 0.6738
vn 0.9939 -0.1105 0.0000
vn 0.0000 0.3025 0.9532
vn 0.0000 -0.1105 0.9939
vn 0.7028 -0.1107 0.7028
vn -0.6738 0.3034 0.6738
vn -0.9532 0.3025 0.0000
vn -0.9939 -0.1105 0.0000
vn -0.7028 -0.1107 0.7028
vn -0.6738 0.3034 -0.6738
vn 0.0000 0.3025 -0.9532
vn -0.0000 -0.1105 -0.9939
vn -0.7028 -0.1107 -0.7028
vn 0.6738 0.3034 -0.6738
vn 0.7028 -0.1107 -0.7028
vn 0.5792 -0.5735 0.5792
vn 0.8198 -0.5726 0.0000
vn 0.4157 -0.8089 0.4157
vn 0.5888 -0.8083 0.0000
vn 0.0000 -0.5726 0.8198
vn -0.5792 -0.5735 0.5792
vn -0.4157 -0.8089 0.4157
vn -0.0000 -0.8083 0.5888
vn -0.8198 -0.5726 0.0000
vn -0.5792 -0.5735 -0.5792
vn -0.4157 -0.8089 -0.4157
vn -0.5888 -0.8083 0.0000
vn 0.0000 -0.5726 -0.8198
vn 0.5792 -0.5735 -0.5792
vn 0.4157 -0.8089 -0.4157
vn 0.0000 -0.8083 -0.5888
vn 0.2016 -0.9585 0.2016
vn 0.2850 -0.9585 0.0000
vn 0.0000 -1.0000 -0.0000
vn 0.0000 -0.9585 0.2850
vn -0.2016 -0.9585 0.2016
vn -0.2850 -0.9585 0.0000
vn -0.2016 -0.9585 -0.2016
vn -0.0000 -0.9585 -0.2850
vn 0.2016 -0.9585 -0.2016
vn -0.0163 0.2642 0.9643
vn 0.2491 -0.9684 -0.0139
vn 0.0335 -0.9994 -0.0031
vn 0.0100 0.1692 0.9855
vn 0.9298 -0.3658 -0.0411
vn -0.0450 0.9990 0.0014
vn -0.4425 0.8967 0.0044
vn -0.3032 0.1168 0.9457
vn 0.0063 0.1729 -0.9849
vn -0.2695 0.1026 -0.9575
vn -0.9863 0.1651 -0.0032
vn -0.0157 0.2602 -0.9654
vn 0.8289 0.5593 -0.0134
vn -0.1115 -0.0737 0.9910
vn 0.6069 0.7942 -0.0290
vn -0.7841 -0.6206 0.0079
vn -0.3534 -0.5429 0.7618
vn -0.3230 -0.5244 -0.7878
vn -0.5545 -0.8321 0.0076
vn -0.1021 -0.0951 -0.9902
vn -0.4885 0.8726 -0.0072
vn 0.2052 0.0282 0.9783
vn -0.7440 0.6678 0.0236
vn -0.6974 0.7144 0.0564
vn 0.3245 -0.2475 0.9129
vn 0.7848 -0.6196 -0.0174
vn -0.0408 0.2940 0.9549
vn 0.3423 -0.2439 -0.9074
vn 0.6475 -0.7621 -0.0025
vn 0.0592 0.3207 -0.9453
vn 0.6035 -0.7910 -0.1005
vn 0.1831 -0.0165 -0.9830
vn 0.0307 0.9973 0.0671
vn 0.3038 -0.0791 -0.9495
vn 0.9551 -0.2960 0.0142
vn 0.2492 0.7396 0.6252
vn -0.3214 0.9469 -0.0029
vn 0.4059 0.7443 -0.5303
vn 0.8746 0.4661 -0.1337
vn 0.3288 -0.1526 0.9320
vn 0.6774 0.2870 0.6774
vn 0.9576 0.2882 -0.0000
vn 0.0000 1.0000 0.0000
vn 0.5956 0.5395 0.5951
vn 0.8433 0.5374 0.0003
vn 0.0000 0.2882 0.9576
vn -0.6774 0.2870 0.6774
vn -0.5951 0.5395 0.5956
vn -0.0004 0.5369 0.8436
vn -0.9576 0.2882 0.0000
vn -0.6774 0.2870 -0.6774
vn -0.5956 0.5395 -0.5951
vn -0.8435 0.5372 0.0000
vn 0.0000 0.2882 -0.9576
vn 0.6774 0.2870 -0.6774
vn 0.5951 0.5395 -0.5956
vn 0.0004 0.5369 -0.8436
vn 0.2754 0.9613 0.0000
vn 0.1942 0.9616 0.1942
vn 0.3011 0.9536 0.0000
vn 0.0000 0.9613 0.2754
vn -0.0000 0.9536 0.3011
vn 0.2121 0.9539 0.2121
vn -0.1942 0.9616 0.1942
vn -0.2754 0.9613 0.0000
vn -0.3011 0.9536 0.0000
vn -0.2121 0.9539 0.2121
vn -0.1942 0.9616 -0.1942
vn 0.0000 0.9613 -0.2754
vn 0.0000 0.9536 -0.3011
vn -0.2121 0.9539 -0.2121
vn 0.1942 0.9616 -0.1942
vn 0.2121 0.9539 -0.2121
s 1
f 2//1 4//2 1//3
f 3//4 6//5 4//2
f 2//1 8//6 3//4
f 3//4 9//7 5//8
f 7//9 11//10 8//6
f 8//6 12//11 9//7
f 10//12 14//13 11//10
f 11//10 15//14 12//11
f 16//15 14//13 13//16
f 17//17 15//14 14//13
f 16//15 20//18 17//17
f 17//17 21//19 18//20
f 22//21 20//18 19//22
f 23//23 21//19 20//18
f 22//21 4//2 23//23
f 23//23 6//5 24//24
f 5//8 26//25 6//5
f 25//26 28//27 26//25
f 5//8 29//28 25//26
f 25//26 30//29 27//30
f 12//11 29//28 9//7
f 31//31 30//29 29//28
f 12//11 33//32 31//31
f 31//31 34//33 32//34
f 18//20 33//32 15//14
f 35//35 34//33 33//32
f 18//20 37//36 35//35
f 35//35 38//37 36//38
f 24//24 37//36 21//19
f 39//39 38//37 37//36
f 24//24 26//25 39//39
f 39//39 28//27 40//40
f 28//27 41//41 42//42
f 42//42 43//43 44//44
f 30//29 41//41 27//30
f 45//45 43//43 41//41
f 30//29 47//46 45//45
f 45//45 48//47 46//48
f 34//33 47//46 32//34
f 49//49 48//47 47//46
f 34//33 51//50 49//49
f 49//49 52//51 50//52
f 38//37 51//50 36//38
f 53//53 52//51 51//50
f 38//37 55//54 53//53
f 53//53 56//55 54//56
f 28//27 55//54 40//40
f 42//42 56//55 55//54
f 44//44 57//57 58//58
f 58//58 57//57 59//59
f 46//48 57//57 43//43
f 57//57 60//60 59//59
f 46//48 61//61 60//60
f 60//60 61//61 59//59
f 50//52 61//61 48//47
f 61//61 62//62 59//59
f 50//52 63//63 62//62
f 62//62 63//63 59//59
f 54//56 63//63 52//51
f 63//63 64//64 59//59
f 54//56 65//65 64//64
f 64//64 65//65 59//59
f 44//44 65//65 56//55
f 65//65 58//58 59//59
f 67//66 69//67 66//68
f 68//69 71//70 69//67
f 72//71 68//69 67//66
f 73//72 70//73 68//69
f 72//71 76//74 73//72
f 73//72 77//75 74//76
f 75//77 69//67 76//74
f 76//74 71//70 77//75
f 70//73 79//78 71//70
f 78//79 34//80 79//78
f 70//73 81//81 78//79
f 81//81 80//82 78//79
f 77//75 81//81 74//76
f 81//81 84//83 82//84
f 77//75 79//78 83//85
f 83//85 34//80 84//83
f 85//86 87//87 88//88
f 87//87 90//89 88//88
f 86//90 92//91 87//87
f 92//91 89//92 87//87
f 94//93 92//91 91//94
f 92//91 96//95 93//96
f 85//86 95//97 94//93
f 95//97 90//89 96//95
f 89//92 98//98 90//89
f 98//98 99//99 100//100
f 93//96 97//101 89//92
f 97//101 102//102 99//99
f 93//96 103//103 101//104
f 103//103 102//102 101//104
f 96//95 98//98 103//103
f 98//98 104//105 103//103
f 105//106 106//107 107//108
f 106//107 108//109 109//110
f 110//111 105//106 107//108
f 110//111 108//109 105//106
f 112//112 110//111 107//108
f 110//111 113//113 111//114
f 114//115 112//112 107//108
f 114//115 113//113 112//112
f 116//116 114//115 107//108
f 114//115 117//117 115//118
f 118//119 116//116 107//108
f 118//119 117//117 116//116
f 120//120 118//119 107//108
f 118//119 121//121 119//122
f 106//107 120//120 107//108
f 106//107 121//121 120//120
f 108//109 123//123 109//110
f 122//124 125//125 123//123
f 108//109 126//126 122//124
f 122//124 127//127 124//128
f 113//113 126//126 111//114
f 128//129 127//127 126//126
f 113//113 130//130 128//129
f 128//129 131//131 129//132
f 117//117 130//130 115//118
f 132//133 131//131 130//130
f 117//117 134//134 132//133
f 132//133 135//135 133//136
f 121//121 134//134 119//122
f 136//137 135//135 134//134
f 121//121 123//123 136//137
f 136//137 125//125 137//138
f 2//1 3//4 4//2
f 3//4 5//8 6//5
f 2//1 7//9 8//6
f 3//4 8//6 9//7
f 7//9 10//12 11//10
f 8//6 11//10 12//11
f 10//12 13//16 14//13
f 11//10 14//13 15//14
f 16//15 17//17 14//13
f 17//17 18//20 15//14
f 16//15 19//22 20//18
f 17//17 20//18 21//19
f 22//21 23//23 20//18
f 23//23 24//24 21//19
f 22//21 1//3 4//2
f 23//23 4//2 6//5
f 5//8 25//26 26//25
f 25//26 27//30 28//27
f 5//8 9//7 29//28
f 25//26 29//28 30//29
f 12//11 31//31 29//28
f 31//31 32//34 30//29
f 12//11 15//14 33//32
f 31//31 33//32 34//33
f 18//20 35//35 33//32
f 35//35 36//38 34//33
f 18//20 21//19 37//36
f 35//35 37//36 38//37
f 24//24 39//39 37//36
f 39//39 40//40 38//37
f 24//24 6//5 26//25
f 39//39 26//25 28//27
f 28//27 27//30 41//41
f 42//42 41//41 43//43
f 30//29 45//45 41//41
f 45//45 46//48 43//43
f 30//29 32//34 47//46
f 45//45 47//46 48//47
f 34//33 49//49 47//46
f 49//49 50//52 48//47
f 34//33 36//38 51//50
f 49//49 51//50 52//51
f 38//37 53//53 51//50
f 53//53 54//56 52//51
f 38//37 40//40 55//54
f 53//53 55//54 56//55
f 28//27 42//42 55//54
f 42//42 44//44 56//55
f 44//44 43//43 57//57
f 46//48 60//60 57//57
f 46//48 48//47 61//61
f 50//52 62//62 61//61
f 50//52 52//51 63//63
f 54//56 64//64 63//63
f 54//56 56//55 65//65
f 44//44 58//58 65//65
f 67//66 68//69 69//67
f 68//69 70//73 71//70
f 72//71 73//72 68//69
f 73//72 74//76 70//73
f 72//71 75//77 76//74
f 73//72 76//74 77//75
f 75//77 66//68 69//67
f 76//74 69//67 71//70
f 70//73 78//79 79//78
f 78//79 80//82 34//80
f 70//73 74//76 81//81
f 81//81 82//84 80//82
f 77//75 83//85 81//81
f 81//81 83//85 84//83
f 77//75 71//70 79//78
f 83//85 79//78 34//80
f 85//86 86//90 87//87
f 87//87 89//92 90//89
f 86//90 91//94 92//91
f 92//91 93//96 89//92
f 94//93 95//97 92//91
f 92//91 95//97 96//95
f 85//86 88//88 95//97
f 95//97 88//88 90//89
f 89//92 97//101 98//98
f 98//98 97//101 99//99
f 93//96 101//104 97//101
f 97//101 101//104 102//102
f 93//96 96//95 103//103
f 103//103 104//105 102//102
f 96//95 90//89 98//98
f 98//98 100//100 104//105
f 106//107 105//106 108//109
f 110//111 111//114 108//109
f 110//111 112//112 113//113
f 114//115 115//118 113//113
f 114//115 116//116 117//117
f 118//119 119//122 117//117
f 118//119 120//120 121//121
f 106//107 109//110 121//121
f 108//109 122//124 123//123
f 122//124 124//128 125//125
f 108//109 111//114 126//126
f 122//124 126//126 127//127
f 113//113 128//129 126//126
f 128//129 129//132 127//127
f 113//113 115//118 130//130
f 128//129 130//130 131//131
f 117//117 132//133 130//130
f 132//133 133//136 131//131
f 117//117 119//122 134//134
f 132//133 134//134 135//135
f 121//121 136//137 134//134
f 136//137 137//138 135//135
f 121//121 109//110 123//123
f 136//137 123//123 125//125
